
<svg width="200" height="58" viewBox="0 0 200 58" fill="none" xmlns="http://www.w3.org/2000/svg">
<g clip-path="url(#clip0_4762_1388)">
<path d="M26.5043 40.0527V40.0556C11.6268 39.3869 0.0581055 34.3101 0.0581055 28.1465C0.0581055 23.3208 7.15044 19.161 17.3694 17.2646C10.2203 30.1892 26.155 39.8495 26.5043 40.0527Z" fill="#006F4D"/>
<path d="M59.6277 28.1471C59.6277 34.7647 46.2941 40.1311 29.843 40.1311L26.5104 40.0562C26.5012 39.898 26.3551 35.2305 39.799 25.2982C43.0391 22.9062 45.0906 20.4934 46.2912 18.1553C54.3303 20.3024 59.6277 23.9754 59.6277 28.1471Z" fill="#006F4D"/>
<path d="M39.8004 25.2964C26.1175 35.404 26.5088 40.0577 26.5088 40.0577C26.5088 40.0577 8.28682 23.4096 30.9451 10.0157C41.936 3.51898 41.0454 0.182617 41.0454 0.182617C41.0454 0.182617 56.8348 12.7132 39.8004 25.2964Z" fill="#FF8931"/>
<path d="M68.4333 37.9771H72.6922V9.0498H68.4333V37.9771Z" fill="#006F4D"/>
<path d="M76.7496 18.0493H81.0085V37.9771H76.7496V18.0493ZM78.8789 14.2727C78.0753 14.2727 77.4124 14.0254 76.8901 13.5294C76.3677 13.0339 76.1069 12.4115 76.1069 11.6611C76.1069 10.9116 76.3677 10.2888 76.8901 9.79281C77.4124 9.29767 78.0753 9.0498 78.8789 9.0498C79.6825 9.0498 80.3454 9.29767 80.8677 9.79281C81.3899 10.2888 81.6512 10.9116 81.6512 11.6611C81.6512 12.4115 81.3899 13.0339 80.8677 13.5294C80.3454 14.0254 79.6825 14.2727 78.8789 14.2727Z" fill="#006F4D"/>
<path d="M94.869 34.7632C96.6901 34.7632 98.1835 34.1343 99.3488 32.875C100.514 31.6163 101.097 29.9959 101.097 28.0135C101.097 26.0048 100.514 24.3774 99.3488 23.1319C98.1835 21.8866 96.6901 21.2638 94.869 21.2638C93.0472 21.2638 91.5474 21.8866 90.3691 23.1319C89.1904 24.3774 88.6012 26.0048 88.6012 28.0135C88.6012 29.3261 88.8688 30.4914 89.4049 31.509C89.9404 32.5271 90.6838 33.3239 91.6348 33.8993C92.5851 34.4755 93.6638 34.7632 94.869 34.7632ZM101.097 46.8163V34.8838C100.454 35.8214 99.5697 36.6514 98.4445 37.3748C97.3199 38.098 95.8733 38.4594 94.1057 38.4594C92.1771 38.4594 90.476 38.0038 89.0031 37.0936C87.5298 36.1834 86.378 34.9376 85.548 33.357C84.7175 31.777 84.3025 29.9822 84.3025 27.9734C84.3025 25.9644 84.7175 24.1766 85.548 22.6097C86.378 21.0429 87.5369 19.8111 89.0232 18.9133C90.5099 18.0163 92.2173 17.5674 94.1458 17.5674C95.7259 17.5674 97.1121 17.8758 98.3041 18.4915C99.4955 19.1079 100.427 19.9782 101.097 21.1032L101.538 18.0497H105.355V46.8163H101.097Z" fill="#006F4D"/>
<path d="M127.452 18.0488V37.9766H123.676L123.354 34.4812C122.738 35.7135 121.834 36.6845 120.642 37.3939C119.45 38.1033 118.077 38.4586 116.524 38.4586C114.114 38.4586 112.219 37.7093 110.839 36.2089C109.459 34.7091 108.77 32.4724 108.77 29.4991V18.0488H112.989V29.0572C112.989 32.9143 114.569 34.8426 117.73 34.8426C119.31 34.8426 120.616 34.2804 121.647 33.1554C122.678 32.0305 123.194 30.4233 123.194 28.3341V18.0488H127.452Z" fill="#006F4D"/>
<path d="M131.51 18.0493H135.769V37.9771H131.51V18.0493ZM133.639 14.2727C132.836 14.2727 132.173 14.0254 131.651 13.5294C131.129 13.0339 130.867 12.4115 130.867 11.6611C130.867 10.9116 131.129 10.2888 131.651 9.79281C132.173 9.29767 132.836 9.0498 133.639 9.0498C134.443 9.0498 135.106 9.29767 135.628 9.79281C136.151 10.2888 136.412 10.9116 136.412 11.6611C136.412 12.4115 136.151 13.0339 135.628 13.5294C135.106 14.0254 134.443 14.2727 133.639 14.2727Z" fill="#006F4D"/>
<path d="M147.942 28.5357C149.174 28.5357 150.172 28.2079 150.935 27.5514C151.699 26.8953 152.08 25.9644 152.08 24.759C152.08 23.5272 151.699 22.5896 150.935 21.9466C150.172 21.3039 149.174 20.9823 147.942 20.9823C146.683 20.9823 145.672 21.3039 144.909 21.9466C144.145 22.5896 143.764 23.5272 143.764 24.759C143.764 25.9644 144.145 26.8953 144.909 27.5514C145.672 28.2079 146.683 28.5357 147.942 28.5357ZM142.599 40.5083C142.599 41.6599 143.107 42.5235 144.125 43.1C145.143 43.6753 146.415 43.9636 147.942 43.9636C149.415 43.9636 150.607 43.6485 151.518 43.0195C152.428 42.3897 152.884 41.553 152.884 40.5083C152.884 39.7313 152.576 39.0682 151.96 38.5197C151.343 37.971 150.178 37.6294 148.464 37.4951C147.179 37.4147 146.04 37.2941 145.05 37.1337C144.112 37.6426 143.469 38.1913 143.121 38.7807C142.773 39.3699 142.599 39.946 142.599 40.5083ZM147.942 31.8704C146.897 31.8704 145.933 31.7498 145.05 31.5087L143.322 33.1961C143.616 33.3839 143.978 33.5446 144.406 33.6784C144.835 33.8127 145.437 33.9333 146.215 34.0401C146.991 34.1475 148.049 34.2546 149.389 34.3612C152.04 34.6023 153.955 35.2388 155.134 36.2698C156.312 37.3014 156.902 38.6736 156.902 40.3877C156.902 41.5662 156.586 42.6841 155.958 43.7426C155.328 44.8005 154.35 45.6572 153.025 46.3141C151.699 46.97 150.004 47.2983 147.942 47.2983C145.156 47.2983 142.9 46.7689 141.173 45.7113C139.445 44.6528 138.581 43.0529 138.581 40.9101C138.581 40.0798 138.802 39.256 139.244 38.4392C139.686 37.6224 140.389 36.8525 141.353 36.1291C140.791 35.8879 140.302 35.6269 139.887 35.3456C139.471 35.0644 139.103 34.7769 138.782 34.4817V33.5177L142.237 29.9822C140.683 28.643 139.907 26.8883 139.907 24.7189C139.907 23.4069 140.221 22.208 140.851 21.1231C141.48 20.0383 142.398 19.1743 143.603 18.5317C144.809 17.8887 146.255 17.5674 147.942 17.5674C149.067 17.5674 150.112 17.7281 151.076 18.0494H158.509V20.8618L154.973 21.0628C155.616 22.1614 155.937 23.3797 155.937 24.7189C155.937 26.0586 155.622 27.2638 154.993 28.3349C154.364 29.4063 153.453 30.2632 152.261 30.9061C151.069 31.5488 149.63 31.8704 147.942 31.8704Z" fill="#006F4D"/>
<path d="M167.79 16.4826V13.4291L176.548 8.44727V11.9828L167.79 16.4826ZM169.758 34.763C171.579 34.763 173.073 34.1343 174.238 32.8748C175.404 31.6161 175.986 29.996 175.986 28.0133C175.986 26.0046 175.404 24.3774 174.238 23.1319C173.073 21.8864 171.579 21.2636 169.758 21.2636C167.937 21.2636 166.437 21.8864 165.258 23.1319C164.08 24.3774 163.491 26.0046 163.491 28.0133C163.491 29.3261 163.758 30.4912 164.294 31.5087C164.83 32.5271 165.573 33.3237 166.524 33.8991C167.475 34.4756 168.553 34.763 169.758 34.763ZM168.995 38.4595C167.066 38.4595 165.365 38.0036 163.893 37.0934C162.419 36.1832 161.267 34.9377 160.437 33.3568C159.607 31.7768 159.192 29.9823 159.192 27.9732C159.192 25.9644 159.607 24.1764 160.437 22.6096C161.267 21.0427 162.426 19.8109 163.912 18.9133C165.399 18.0164 167.107 17.5675 169.035 17.5675C170.615 17.5675 172.001 17.8756 173.193 18.4913C174.385 19.1079 175.316 19.978 175.986 21.103L176.227 18.0494H180.245V37.9772H176.267L175.986 34.8836C175.343 35.8215 174.459 36.6514 173.334 37.3746C172.209 38.0978 170.763 38.4595 168.995 38.4595Z" fill="#006F4D"/>
<path d="M191.976 38.4594C189.458 38.4594 187.382 37.8436 185.749 36.6113C184.114 35.3798 183.177 33.7457 182.936 31.7097H187.235C187.449 32.6207 187.958 33.4042 188.762 34.06C189.566 34.7169 190.623 35.0444 191.936 35.0444C193.222 35.0444 194.158 34.7772 194.748 34.2408C195.337 33.7053 195.633 33.0893 195.633 32.3928C195.633 31.3752 195.223 30.6851 194.407 30.3237C193.589 29.962 192.458 29.6342 191.012 29.3392C189.887 29.0981 188.768 28.7768 187.657 28.375C186.545 27.9732 185.621 27.4045 184.885 26.6674C184.148 25.931 183.78 24.9336 183.78 23.6744C183.78 21.9337 184.449 20.4804 185.789 19.3151C187.128 18.1501 189.003 17.5674 191.413 17.5674C193.636 17.5674 195.438 18.1035 196.817 19.1746C198.196 20.246 199.007 21.7595 199.248 23.7145H195.15C195.016 22.8576 194.621 22.1878 193.965 21.7058C193.308 21.2235 192.431 20.9826 191.333 20.9826C190.262 20.9826 189.431 21.2033 188.842 21.6455C188.253 22.0874 187.958 22.6566 187.958 23.3528C187.958 24.0498 188.366 24.5986 189.183 25.0001C190 25.4019 191.078 25.7634 192.418 26.085C193.757 26.38 194.995 26.7214 196.134 27.1095C197.273 27.4981 198.19 28.0674 198.886 28.8172C199.582 29.5672 199.931 30.6652 199.931 32.1115C199.958 33.9332 199.254 35.4463 197.822 36.6514C196.389 37.8568 194.44 38.4594 191.976 38.4594Z" fill="#006F4D"/>
<path d="M72.6553 53.6281V54.774H69.8737V56.4006H72.8773V57.556H68.3208V50.9941H72.8125V52.1493H69.8737V53.6281H72.6553Z" fill="#006F4D"/>
<path d="M74.8269 57.556V50.9941H76.546L78.6624 54.7372L79.06 55.5873L79.0691 50.9941H80.4923V57.556H78.8288L76.2411 52.9717L76.2503 57.556H74.8269Z" fill="#006F4D"/>
<path d="M87.0259 53.6281V54.774H84.2442V56.4006H87.2479V57.556H82.6914V50.9941H87.1831V52.1493H84.2442V53.6281H87.0259Z" fill="#006F4D"/>
<path d="M90.7504 52.0938V53.9698H91.7671C92.5156 53.9698 92.8482 53.6004 92.8482 53.0088C92.8482 52.4358 92.525 52.0938 91.7671 52.0938H90.7504ZM92.9591 57.556L91.7023 55.0421H90.7504V57.556H89.1975V50.9941H92.0812C93.7446 50.9941 94.4748 51.8074 94.4748 53.0088C94.4748 53.8316 94.0407 54.5245 93.1994 54.8112L94.6414 57.556H92.9591Z" fill="#006F4D"/>
<path d="M95.8792 54.2844C95.8792 52.2234 97.1263 50.8369 99.1321 50.8369C100.86 50.8369 101.785 51.7611 101.988 52.8519L100.445 53.1382C100.334 52.5189 99.9271 52.0108 99.1232 52.0108C98.0784 52.0108 97.478 52.8793 97.478 54.2658C97.478 55.643 98.0416 56.5117 99.1415 56.5117C100.14 56.5117 100.592 55.7353 100.592 55.1623V55.0237H98.9843V53.9055H102.016V57.5562H100.916L100.842 56.5949C100.51 57.2973 99.7791 57.7134 98.7994 57.7134C96.9786 57.7134 95.8792 56.364 95.8792 54.2844Z" fill="#006F4D"/>
<path d="M104.03 57.556H105.583V50.9941H104.03V57.556Z" fill="#006F4D"/>
<path d="M109.649 54.9221H111.35L110.49 52.1678C110.435 52.5005 110.342 52.8054 110.25 53.092L109.649 54.9221ZM111.396 50.9941L113.78 57.556H112.209L111.71 56.0217H109.289L108.79 57.556H107.228L109.612 50.9941H111.396Z" fill="#006F4D"/>
<path d="M121.146 54.081C121.848 54.081 122.255 53.7207 122.255 53.1014C122.255 52.4821 121.848 52.1215 121.146 52.1215H120.176V54.081H121.146ZM121.525 50.9941C122.957 50.9941 123.882 51.8074 123.882 53.0551C123.882 54.3585 122.976 55.1715 121.497 55.1715H120.176V57.5563H118.623V50.9941H121.525Z" fill="#006F4D"/>
<path d="M126.644 54.9221H128.345L127.485 52.1678C127.43 52.5005 127.337 52.8054 127.245 53.092L126.644 54.9221ZM128.392 50.9941L130.776 57.556H129.205L128.705 56.0217H126.284L125.785 57.556H124.223L126.607 50.9941H128.392Z" fill="#006F4D"/>
<path d="M133.964 52.0938V53.9698H134.98C135.729 53.9698 136.062 53.6004 136.062 53.0088C136.062 52.4358 135.738 52.0938 134.98 52.0938H133.964ZM136.173 57.556L134.916 55.0421H133.964V57.556H132.411V50.9941H135.295C136.958 50.9941 137.689 51.8074 137.689 53.0088C137.689 53.8316 137.254 54.5245 136.413 54.8112L137.855 57.556H136.173Z" fill="#006F4D"/>
<path d="M141.588 54.9221H143.288L142.429 52.1678C142.373 52.5005 142.281 52.8054 142.189 53.092L141.588 54.9221ZM143.335 50.9941L145.72 57.556H144.148L143.649 56.0217H141.227L140.728 57.556H139.167L141.551 50.9941H143.335Z" fill="#006F4D"/>
<path d="M150.025 56.1882L151.181 55.3749C151.514 56.0496 152.086 56.5023 152.956 56.5023C153.584 56.5023 154.083 56.2717 154.083 55.7539C154.083 55.264 153.796 55.0791 153.131 54.9405L152.253 54.7559C151.107 54.5062 150.442 53.8869 150.442 52.787C150.442 51.5856 151.421 50.8369 153.001 50.8369C154.176 50.8369 155.146 51.2621 155.617 52.14L154.592 52.9996C154.259 52.3618 153.649 51.9923 152.9 51.9923C152.281 51.9923 151.883 52.2512 151.883 52.667C151.883 53.0919 152.142 53.3045 152.835 53.4617L153.787 53.6651C154.952 53.9238 155.59 54.4785 155.59 55.6061C155.59 56.8535 154.619 57.7134 152.9 57.7134C151.486 57.7134 150.469 57.1124 150.025 56.1882Z" fill="#006F4D"/>
<path d="M157.317 50.9941H158.87V55.1993C158.87 55.9665 159.323 56.4469 160.09 56.4469C160.866 56.4469 161.319 55.9665 161.319 55.1993V50.9941H162.872V55.2641C162.872 56.7612 161.837 57.7134 160.09 57.7134C158.343 57.7134 157.317 56.7612 157.317 55.2641V50.9941Z" fill="#006F4D"/>
<path d="M166.614 54.9221H168.315L167.455 52.1678C167.4 52.5005 167.307 52.8054 167.215 53.092L166.614 54.9221ZM168.361 50.9941L170.745 57.556H169.175L168.675 56.0217H166.254L165.755 57.556H164.193L166.577 50.9941H168.361Z" fill="#006F4D"/>
<path d="M177.177 57.556L174.969 50.9941H176.632L177.852 55.227C177.963 55.615 178.027 55.874 178.055 56.1329H178.092C178.13 55.874 178.185 55.615 178.305 55.227L179.525 50.9941H181.189L178.98 57.556H177.177Z" fill="#006F4D"/>
<path d="M182.769 57.556H184.321V50.9941H182.769V57.556Z" fill="#006F4D"/>
<path d="M188.074 56.4101H189.044C190.162 56.4101 190.763 55.4115 190.763 54.2379C190.763 53.0457 190.199 52.1401 189.062 52.1401H188.074V56.4101ZM186.521 57.556V50.9941H189.127C191.096 50.9941 192.381 52.3064 192.381 54.2379C192.381 56.2066 191.105 57.556 189.108 57.556H186.521Z" fill="#006F4D"/>
<path d="M195.8 54.9221H197.5L196.64 52.1678C196.585 52.5005 196.493 52.8054 196.4 53.092L195.8 54.9221ZM197.546 50.9941L199.93 57.556H198.36L197.86 56.0217H195.439L194.94 57.556H193.378L195.762 50.9941H197.546Z" fill="#006F4D"/>
</g>
<defs>
<clipPath id="clip0_4762_1388">
<rect width="200" height="57.7517" fill="white"/>
</clipPath>
</defs>
</svg>
