<svg xmlns="http://www.w3.org/2000/svg" width="142" height="34" viewBox="0 0 142 34" fill="none">
        <path d="M78.6394 20.2955C78.4149 20.3626 78.2784 20.42 77.9565 20.42C77.3027 20.42 76.9417 19.874 76.9417 18.849V7.057H73.0487L72.5609 9.30811H72.2682C71.1267 7.95745 69.5461 6.67383 66.4044 6.67383C60.6089 6.67383 57.0769 11.042 57.0769 16.2818C57.0769 21.1959 60.5797 25.4107 66.3458 25.4107C68.9314 25.4107 71.0974 24.3475 72.3658 22.5849H72.6292C72.9902 24.29 74.3659 25.315 76.3953 25.315C77.3125 25.315 78.2979 25.1234 79.0784 24.7689V20.305H78.6394V20.2955ZM66.9898 20.7457C64.375 20.7457 62.3358 18.7532 62.3358 16.0806C62.3358 13.2547 64.3653 11.3198 66.9508 11.3198C69.6046 11.3198 71.6633 13.4368 71.6633 16.0806C71.6731 18.5616 69.6729 20.7457 66.9898 20.7457Z" fill="#000FFF"></path>
        <path d="M133.17 20.5538L141.834 10.1412V7.05664H126.311V11.5205H134.614L125.891 21.9331V25.0177H142V20.5538H133.17Z" fill="#000FFF"></path>
        <path d="M122.642 20.4296C121.989 20.4296 121.628 19.8835 121.628 18.8585V7.057H117.735L117.248 9.30811H116.954C115.813 7.95745 114.233 6.67383 111.091 6.67383C105.295 6.67383 101.763 11.042 101.763 16.2818C101.763 21.1959 105.266 25.4107 111.032 25.4107C113.618 25.4107 115.783 24.3475 117.052 22.5849H117.315C117.676 24.3859 119.052 25.4107 121.081 25.4107C121.999 25.4107 122.984 25.2192 123.764 24.8648V20.2955H123.335C123.101 20.3626 122.974 20.4296 122.642 20.4296ZM111.676 20.7457C109.061 20.7457 107.023 18.7532 107.023 16.0806C107.023 13.2547 109.051 11.3198 111.637 11.3198C114.291 11.3198 116.35 13.4368 116.35 16.0806C116.359 18.5616 114.359 20.7457 111.676 20.7457Z" fill="#000FFF"></path>
        <path d="M96.0844 21.8767C98.0163 20.5164 99.2651 18.7634 99.2651 15.8897C99.2651 14.06 98.1528 11.9047 96.3869 10.8414V10.554H99.2065V6.85645H90.2401C84.5128 6.85645 80.1223 10.3241 80.1223 15.5352C80.1223 20.8708 84.1811 24.2427 90.0059 24.2427C92.3671 24.2427 93.8696 25.2677 93.8696 26.9728C93.8696 28.3906 92.5232 29.3484 90.6889 29.3484V33.9465C96.1527 33.9465 99.4017 31.5709 99.4017 27.2602C99.4017 24.8941 98.143 22.9112 96.0844 21.8767ZM89.6449 19.8746C87.2253 19.8746 85.2544 18.0737 85.2544 15.6022C85.2544 12.968 87.2155 11.2342 89.6059 11.2342C92.0256 11.2342 93.9965 13.035 93.9965 15.5065C93.9965 18.1407 92.0354 19.8746 89.6449 19.8746Z" fill="#000FFF"></path>
        <path d="M44.9497 25.0179H50.2574V16.4348C50.2574 12.8713 52.677 11.7123 55.165 11.7123H55.8187V6.66406H55.1943C52.9014 6.66406 51.0379 7.6603 49.9841 9.10676H49.7207L49.1743 7.05681H44.9497V25.0179Z" fill="#000FFF"></path>
        <path d="M38.7638 25.4108C39.9054 25.4108 41.5836 25.2192 42.5983 24.7403V20.1422H42.2373C41.7494 20.3626 40.8908 20.717 39.7785 20.717C37.7199 20.717 36.5686 19.692 36.5686 17.1823V11.3964H42.0031V7.05704H36.5393V3.0625H32.5487L31.7292 7.04746H28.6168V11.3869H31.2706V17.1057C31.2706 23.0927 34.2172 25.4108 38.7638 25.4108Z" fill="#000FFF"></path>
        <path d="M26.3244 0.0449219H21.0167V25.018H26.3244V0.0449219Z" fill="#000FFF"></path>
        <path d="M8.86891 25.4105C14.1376 25.4105 17.8354 22.3929 17.8354 16.8945V7.05664H12.5277V16.7987C12.5277 19.2702 11.2203 20.7549 8.89817 20.7549C6.57606 20.7549 5.29793 19.2414 5.29793 16.7029V7.05664H0V16.8945C0 22.3259 3.50268 25.4105 8.86891 25.4105Z" fill="#000FFF"></path>
        <path d="M66.5312 33.9553C73.1074 33.9553 73.9952 30.4876 78.6102 30.4876C83.2251 30.4876 84.113 33.9553 90.689 33.9553V29.3573C85.352 29.3573 84.9911 25.8896 78.6102 25.8896C72.2292 25.8896 71.8683 29.3573 66.5312 29.3573V33.9553Z" fill="url(#paint0_linear_10786_57092)"></path>
        <defs>
            <linearGradient id="paint0_linear_10786_57092" x1="66.5293" y1="29.9237" x2="90.6919" y2="29.9237" gradientUnits="userSpaceOnUse">
            <stop offset="0.2032" stop-color="#0000FF" stop-opacity="0"></stop>
            <stop offset="1" stop-color="#0000FF"></stop>
            </linearGradient>
        </defs>
    </svg>