<?xml version="1.0" encoding="UTF-8"?>
<svg version="1.1" viewBox="0 0 2048 2048" width="1280" height="1280" xmlns="http://www.w3.org/2000/svg">
<path transform="translate(127,383)" d="m0 0h321l17 2 12 5 11 7 11 11 8 13 4 11 1 6v169h255l12 2 10 6 22 18 14 12 11 9 13 11 10 8 14 12 11 9 13 11 10 8 13 11 11 9 14 12 10 8 13 11 3 2 5-1 18-10 20-8 21-6 17-3h3l-1-49-43-29-129-86-11-9-4-5-3-8-1-10v-93l2-2h62l2 3v76l10 7 162 108 10 8 6 8 3 8 1 73 10 1 24 6 19 7 23 11 19 12 13 10 9 7v2l5 1 1-6 17-39 12-28 23-54 15-35 6-12 5-6 10-6 9-2h130v-66l2-14 5-12 7-11 4-5 8-7 10-6 12-5 16-2h384l17 2 11 4 10 6 10 9 6 7 7 12 3 9 1 6 1 45v47l-1 183-3 12-8 16-11 12-10 7-11 5-15 3-82 1-7-1 8 23 10 30 1 5v14l-6 12-9 8-13 4h-202l-11-4-9-8-6-12v-15l6-20 12-35 1-2h-92l-13-3-12-6-10-8-7-7-8-13-4-11-2-18v-126h-106l-3 9-13 31-13 30-14 33-12 28-16 37-6 15 3 9 6 13 7 21 5 21 1 10 22 4 24 7 21 9 19 10 16 11 14 11 15 14 12 13 12 16 11 18 8 15 8 20 5 16 5 23 2 16v39l-2 17-5 23-9 27-9 19-10 17-10 14-9 11-2 3h-2v2h-2l-2 4-10 10-11 9-15 11-13 8-23 12-25 9-21 5-19 3-38 2h-18v267l-1 231-3 14-5 13-6 11-8 10-10 10-16 10-16 6-9 2-9 1h-287l-17-3-16-7-11-7-10-9-9-10-9-15-6-18-2-18-1-488-44-1-21-2-23-5-19-6-21-9-19-10-20-14-14-12-11-10-7-8-10-12-11-16-11-19-2-4h-70l-2 4-13 18-10 13-33 44-7 10 6 2 21 12 26 15 23 13 26 15 23 13 11 8 6 7 4 9v16l-6 12-8 7-9 4-8 1v38l-1 225-7 14-8 7-8 3-6 1h-393l-11-4-9-8-5-9-2-12v-255l-9-1-11-6-7-8-4-9-1-8 2-12 5-9h2l2-4 20-12 28-16 26-15 23-13 42-24 26-15 63-36 10-4 11-1 13 4 35 20h3l4-6 12-16 4-6h2l2-5 8-11h2l2-4 8-11 12-16 13-18 11-14 7-7 7-4 10-2h67l-2-28v-11l2-23 5-25 5-17 9-22 10-19 9-14 13-17 9-10 16-16 13-10 18-12 18-10 24-10 18-5h2l2-6 10-19 8-12 9-11 9-10 10-9 14-10 17-10 20-8 19-5 12-2 12-1h14l32 3 8-12 8-10h2l-3-5-15-13-16-13-14-12-11-9-13-11-10-8-14-12-11-9-13-11-11-9-13-11-11-9-7-6-3-1-242-1-1 263-4 10-9 10-10 4-6 1h-393l-11-4-9-8-5-9-2-14v-480l2-14 7-16 7-9 5-5 9-8 15-7 8-2zm2 65-1 3v316h319v-319zm1408 96-1 2v157l5 1h375l3-1v-159zm0 224-1 2v29h383v-31zm-485 36-20 6-16 7-11 6-13 9-14 12-10 10-13 17-13 22-5 6-8 5-6 2h-14l-25-8-15-2h-10l-20 3-16 6-12 7-13 10-10 11-8 13-7 16-5 14-6 9-7 5-14 4-24 6-19 8-13 7-13 9-14 12-10 10-13 17-11 19-8 20-4 14-3 20-1 10v12l3 24 4 16 5 15 8 17 10 15 8 10 9 10 13 12 13 9 16 9 16 7 17 5 18 3 9 1 40 1 2-1 1-42 2-16 5-16 9-16 9-11 12-10 13-8 15-5 11-2 12-1h271l20 2 13 4 16 8 10 8 11 11 7 11 6 12 4 14 1 7 1 50 5 1 39-1 21-3 21-6 16-7 15-8 14-10 10-9 4-3v-2l3-1 9-11 11-15 9-17 7-18 5-20 2-15v-28l-3-20-6-21-8-18-8-14-10-14-12-13-12-11-16-11-16-9-21-8-21-5-33-3-10-4-8-7-6-12-3-30-4-20-6-18-9-19-9-14-7-9-9-10-8-8-17-13-21-12-18-7-14-4h-4v127l4 4 16 8 14 11 10 11 8 13 5 10 5 17 1 6v26l-4 17-7 16-7 11-12 14-14 10-16 8-17 5-8 1h-22l-18-4-12-5-11-6-10-8-6-5-11-14-7-12-6-17-3-19v-9l2-16 5-16 8-16 10-13 9-9 10-7 15-8 4-2v-129zm-923 28-1 3v60h319v-63zm1559 32-4 9-7 20v2h102l-10-30-2-1zm-603 128-8 2-6 3-9 8-4 8-1 5v13l4 10 7 8 9 5 4 1h13l10-4 8-6 5-8 2-6v-14l-5-12-7-7-8-4-8-2zm-198 256-9 2-8 6-5 10-1 13v32h319v-45l-5-10-8-6-9-2zm-568 102-12 6-21 12-26 15-23 13-18 10v1h201l-3-3-27-15-19-11-49-28zm546 26-1 19v364l5 1h311l3-1v-383zm-704 96-1 19v204h63l1-129 2-9 4-8 4-5 10-6 10-2h129l12 2 8 4 8 9 3 6 1 4 1 134h63v-223zm128 128-1 3v92h63v-95zm576 224-1 3v36l2 10 4 6 7 6 6 2h282l9-4 7-8 2-6v-45z"/>
<path transform="translate(1536,1407)" d="m0 0h223l12 2 10 6 8 9 50 75 5 7 13 4 88 22 18 5 9 5 8 9 3 6 1 4v142l-4 10-9 10-10 4-5 1-41 1-8 16-7 11-7 8h-2l-1 3-12 9-12 7-17 6-15 3h-22l-18-4-16-7-11-7-12-11-7-7-9-14-6-13h-42l-8 16-7 11-7 8h-2l-1 3-12 9-12 7-17 6-15 3h-22l-18-4-16-7-12-8-10-9-8-8-9-14-6-13-43-1-11-4-9-8-6-12-1-9v-162l2-8 4-8 60-90 7-9 7-6 9-4zm17 65-7 11-11 16-2 4h66v-31zm112 0-1 2v29h99l-7-11-11-17-3-3zm-160 96-1 3v92h5l10-19 11-14 11-10 14-9 11-5 14-4 6-1h27l15 3 15 6 14 9 10 8 8 9 9 14 7 13h42l10-19 11-14 11-10 14-9 11-5 14-4 6-1h27l15 3 15 6 13 8 11 9 8 9 9 14 6 13h5v-70l-10-3-80-20-11-2zm92 96-8 2-6 3-9 8-4 8-1 4v14l4 10 7 8 10 5 3 1h13l12-5 8-8 4-8 1-3v-15l-6-12-8-7-9-4zm224 0-8 2-6 3-9 8-4 8-1 4v14l4 10 7 8 10 5 3 1h13l12-5 8-8 4-8 1-3v-14l-5-12-7-7-11-5z"/>
<path transform="translate(761,95)" d="m0 0h524l18 2 12 5 11 8 9 10 7 14 2 9v216l-4 10-9 10-10 4-6 1h-585l-11-4-9-8-6-12-1-8v-201l2-14 5-12 8-11 7-7 10-6 10-4zm8 65-1 3v156h63l1-65 2-9 4-8 4-5 8-5 5-2 7-1h320l13 2 8 4 8 9 4 10 1 70h63v-159zm128 128-1 3v28h255v-31z"/>
<path transform="translate(283,479)" d="m0 0h12l22 3 21 7 16 8 14 10 12 11 10 11 10 15 8 17 5 16 3 17v29l-3 16-5 16-8 17-9 13-8 10-9 9-13 10-14 8-13 6-20 6-14 2h-25l-18-3-18-6-16-8-12-8-13-11-11-12-7-10-8-14-8-20-4-20-1-11v-10l2-18 5-19 6-15 9-15 9-12 4-5h2l2-4 8-7 14-10 15-8 13-5 16-4zm0 65-15 3-14 7-9 7-7 7-6 9-5 12-3 16 1 13 3 12 6 12 7 9 7 7 13 8 13 4 5 1h17l13-3 14-7 10-8 7-8 5-9 4-10 2-9v-18l-3-12-8-16-9-10-10-8-11-5-11-3z"/>
<path transform="translate(1674,1183)" d="m0 0h14l22 2 23 5 20 7 15 7 15 8 18 13 10 9 5 4v5l-8 7-36 36-7-6-15-11-19-10-18-6-16-3-11-1h-10l-18 2-16 4-16 6-14 8-13 10-8 7-7-6-39-39 2-4 10-9 19-14 19-11 19-8 19-6 20-4z"/>
<path transform="translate(1018,1439)" d="m0 0h12l22 2 20 4 16 5 15 6 21 11 16 11 11 9 5 4 3 4-1 4-42 42-4-1-8-7-14-10-21-10-17-5-12-2-11-1h-10l-19 2-16 4-19 8-16 10-13 11-4 1-44-44 2-4 10-9 13-10 21-13 22-10 24-7 15-3z"/>
<path transform="translate(1020,1535)" d="m0 0 18 1 14 3 15 6 13 8 11 9v4l-43 43-4-1-6-4-6-2-10-1-10 2-9 6-4-1-43-43 2-4 7-6 14-9 11-5 13-4z"/>
<path transform="translate(1677,1279)" d="m0 0h9l16 2 13 4 16 8 10 7 7 6v5l-8 7-35 35-4-1-8-5-9-2-12 1-8 4-4 3-4-1-43-43 2-4 11-9 16-9 14-5 10-2z"/>
<path transform="translate(737,1055)" d="m0 0h62l2 3v17l-1 45h-64l-1-1v-62z"/>
<path transform="translate(1249,1055)" d="m0 0h62l2 3-1 62h-64l-1-1v-62z"/>
<path transform="translate(865,1055)" d="m0 0h62l2 6-1 59h-64l-1-2v-61z"/>
<path transform="translate(1022,1629)" d="m0 0 10 1 10 4 10 9 5 10 2 10-2 12-5 9-6 7-12 6-4 1h-13l-11-4-8-7-6-10-3-10 1-11 4-10 9-10 12-6z"/>
</svg>
